<svg version="1.1" viewBox="0.0 0.0 960.0 720.0" fill="none" stroke="none" stroke-linecap="square" stroke-miterlimit="10" xmlns:xlink="http://www.w3.org/1999/xlink" xmlns="http://www.w3.org/2000/svg"><clipPath id="p.0"><path d="m0 0l960.0 0l0 720.0l-960.0 0l0 -720.0z" clip-rule="nonzero"/></clipPath><g clip-path="url(#p.0)"><path fill="#000000" fill-opacity="0.0" d="m0 0l960.0 0l0 720.0l-960.0 0z" fill-rule="evenodd"/><path fill="#000000" fill-opacity="0.0" d="m117.120735 172.31233l700.62994 0l0 342.5827l-700.62994 0z" fill-rule="evenodd"/><path fill="#3c78d8" d="m313.97586 307.45297q5.59375 -10.40625 16.125 -16.40625q10.546875 -6.0 25.203125 -6.0q17.609375 0 31.734375 9.203125q14.140625 9.203125 22.265625 26.671875q8.140625 17.46875 8.140625 41.1875q0 23.734375 -8.140625 41.203125q-8.125 17.46875 -22.265625 26.671875q-14.125 9.1875 -31.734375 9.1875q-14.65625 0 -25.203125 -6.0q-10.53125 -6.0 -16.125 -16.390625l0 92.53125l-59.203125 0l0 -222.39062l59.203125 0l0 20.53125zm43.46875 54.65625q0 -12.0 -6.140625 -18.65625q-6.125 -6.671875 -15.734375 -6.671875q-9.59375 0 -15.734375 6.671875q-6.125 6.65625 -6.125 18.65625q0 12.0 6.125 18.671875q6.140625 6.671875 15.734375 6.671875q9.609375 0 15.734375 -6.671875q6.140625 -6.671875 6.140625 -18.671875zm145.59183 77.0625q-21.328125 0 -37.734375 -6.921875q-16.40625 -6.9375 -26.0 -19.203125q-9.59375 -12.265625 -10.9375 -27.734375l56.796875 0q1.078125 6.671875 5.734375 9.875q4.671875 3.1875 11.875 3.1875q4.53125 0 7.1875 -2.0q2.671875 -2.0 2.671875 -4.921875q0 -5.078125 -5.609375 -7.203125q-5.59375 -2.140625 -18.921875 -4.796875q-16.265625 -3.203125 -26.796875 -6.9375q-10.53125 -3.734375 -18.40625 -12.796875q-7.859375 -9.0625 -7.859375 -25.0625q0 -13.875 7.328125 -25.203125q7.34375 -11.328125 21.734375 -17.859375q14.40625 -6.546875 34.9375 -6.546875q30.390625 0 47.59375 14.9375q17.203125 14.9375 20.671875 38.9375l-52.53125 0q-1.34375 -6.140625 -5.609375 -9.46875q-4.265625 -3.34375 -11.453125 -3.34375q-4.546875 0 -6.953125 1.734375q-2.390625 1.734375 -2.390625 5.203125q0 4.53125 5.59375 6.796875q5.609375 2.265625 17.875 4.671875q16.265625 3.203125 27.46875 7.203125q11.203125 4.0 19.46875 13.734375q8.265625 9.734375 8.265625 26.796875q0 13.328125 -7.734375 24.0q-7.734375 10.65625 -22.265625 16.796875q-14.53125 6.125 -34.0 6.125zm181.05011 -52.25l0 50.390625l-22.390625 0q-61.859314 0 -61.859314 -61.59375l0 -39.46875l-18.671875 0l0 -49.328125l18.671875 0l0 -36.26564l59.18744 0l0 36.26564l24.53125 0l0 49.328125l-24.53125 0l0 40.53125q0 5.328125 2.53125 7.734375q2.546875 2.40625 8.40625 2.40625l14.125 0z" fill-rule="nonzero"/></g></svg>