<svg width="26" height="24" viewBox="0 0 26 24" fill="none" xmlns="http://www.w3.org/2000/svg">
<path fill-rule="evenodd" clip-rule="evenodd" d="M7.73874 18.075C7.56432 17.0603 7.85945 16.0226 8.5457 15.2377C9.23196 14.4528 10.2398 14.0001 11.3015 14H13.8395C14.1245 14 14.3555 14.2239 14.3555 14.5V17.727C14.3555 17.8517 14.4303 17.965 14.547 18.0174C14.6638 18.0697 14.8013 18.0517 14.8994 17.971L22.1613 11.991C22.4616 11.744 22.6346 11.3817 22.6346 11C22.6346 10.6184 22.4616 10.256 22.1613 10.009L14.8994 4.02901C14.8013 3.94837 14.6638 3.93028 14.547 3.98266C14.4303 4.03504 14.3555 4.14835 14.3555 4.27301V7.50001C14.3555 7.77616 14.1245 8.00001 13.8395 8.00001H10.7432C7.0381 8.00001 4.03454 10.9102 4.03454 14.5C4.03454 17.35 5.34118 19.097 8.04218 19.839L7.73874 18.075ZM11.3015 15C10.5431 15 9.82302 15.3233 9.33276 15.8841C8.8425 16.4448 8.6317 17.1861 8.75639 17.911L9.18781 20.418C9.21537 20.5798 9.15934 20.7443 9.03786 20.8584C8.91638 20.9725 8.74488 21.0217 8.57887 20.99C4.89841 20.282 3.00244 18.078 3.00244 14.5C3.00244 10.3579 6.46809 7.00001 10.7432 7.00001H13.3234V4.27301C13.3233 3.75842 13.6318 3.29066 14.1139 3.07463C14.5959 2.8586 15.1636 2.9337 15.5682 3.26701L22.8291 9.24701C23.3597 9.68401 23.6655 10.3247 23.6655 10.9995C23.6655 11.6743 23.3597 12.315 22.8291 12.752L15.5682 18.732C15.1639 19.0651 14.5967 19.1403 14.1148 18.9248C13.6329 18.7093 13.3241 18.2422 13.3234 17.728V15H11.3015Z" fill="#263238"/>
</svg>
