<svg width="23" height="18" viewBox="0 0 23 18" fill="none" xmlns="http://www.w3.org/2000/svg">
<path d="M22.2286 14.3536C22.4239 14.1583 22.4239 13.8417 22.2286 13.6464L19.0466 10.4645C18.8514 10.2692 18.5348 10.2692 18.3395 10.4645C18.1442 10.6597 18.1442 10.9763 18.3395 11.1716L21.1679 14L18.3395 16.8284C18.1442 17.0237 18.1442 17.3403 18.3395 17.5355C18.5348 17.7308 18.8514 17.7308 19.0466 17.5355L22.2286 14.3536ZM0.630615 14.5H21.875V13.5H0.630615V14.5Z" fill="#263238"/>
<path d="M0.277266 3.64645C0.0820045 3.84171 0.0820046 4.15829 0.277266 4.35356L3.45925 7.53554C3.65451 7.7308 3.97109 7.7308 4.16635 7.53554C4.36162 7.34027 4.36162 7.02369 4.16635 6.82843L1.33793 4L4.16635 1.17157C4.36162 0.976312 4.36162 0.65973 4.16635 0.464468C3.97109 0.269205 3.65451 0.269205 3.45925 0.464468L0.277266 3.64645ZM21.8752 3.5L0.630819 3.5L0.630819 4.5L21.8752 4.5L21.8752 3.5Z" fill="#263238"/>
</svg>
