<svg width="45" height="36" viewBox="0 0 45 36" fill="none" xmlns="http://www.w3.org/2000/svg">
<path d="M44.196 28.5372C44.5865 28.1467 44.5865 27.5135 44.196 27.123L37.832 20.759C37.4415 20.3685 36.8083 20.3685 36.4178 20.759C36.0273 21.1495 36.0273 21.7827 36.4178 22.1732L42.0746 27.8301L36.4178 33.4869C36.0273 33.8775 36.0273 34.5106 36.4178 34.9011C36.8083 35.2917 37.4415 35.2917 37.832 34.9011L44.196 28.5372ZM1 28.8301H43.4888V26.8301H1V28.8301Z" fill="black"/>
<path d="M0.293301 7.12298C-0.0972214 7.5135 -0.0972213 8.14666 0.293301 8.53719L6.65726 14.9011C7.04779 15.2917 7.68095 15.2917 8.07148 14.9011C8.462 14.5106 8.462 13.8775 8.07148 13.4869L2.41462 7.83008L8.07148 2.17323C8.462 1.7827 8.462 1.14954 8.07148 0.759013C7.68095 0.368489 7.04779 0.368489 6.65726 0.759014L0.293301 7.12298ZM43.4893 6.83008L1.00041 6.83008L1.00041 8.83008L43.4893 8.83008L43.4893 6.83008Z" fill="black"/>
</svg>
