<svg width="26" height="24" viewBox="0 0 26 24" fill="none" xmlns="http://www.w3.org/2000/svg">
<path fill-rule="evenodd" clip-rule="evenodd" d="M2.60556 11.82C4.80805 6.315 11.1988 3.583 16.8795 5.717C19.7705 6.80318 22.0563 9.01792 23.1773 11.819C23.224 11.9354 23.224 12.0646 23.1773 12.181C20.9749 17.685 14.5841 20.417 8.90342 18.283C6.01243 17.1968 3.7266 14.9821 2.60556 12.181C2.55889 12.0646 2.55889 11.9354 2.60556 11.819V11.82ZM9.27601 17.35C14.3632 19.261 20.078 16.868 22.1411 12C21.0987 9.54381 19.0616 7.60978 16.5059 6.65C11.4207 4.739 5.70598 7.132 3.64282 12C4.6852 14.4562 6.72235 16.3902 9.27807 17.35H9.27601ZM12.8915 16C10.6114 16 8.76306 14.2091 8.76306 12C8.76306 9.79086 10.6114 8 12.8915 8C15.1715 8 17.0198 9.79086 17.0198 12C17.0198 14.2091 15.1715 16 12.8915 16ZM12.8915 15C14.6015 15 15.9877 13.6569 15.9877 12C15.9877 10.3431 14.6015 9 12.8915 9C11.1814 9 9.79516 10.3431 9.79516 12C9.79516 13.6569 11.1814 15 12.8915 15Z" fill="#263238"/>
</svg>
